<?xml version="1.0" encoding="UTF-8" standalone="no"?>
<!DOCTYPE svg PUBLIC "-//W3C//DTD SVG 1.1//EN" "http://www.w3.org/Graphics/SVG/1.1/DTD/svg11.dtd">
<svg width="100%" height="100%" viewBox="0 0 752 748" version="1.1" xmlns="http://www.w3.org/2000/svg" xmlns:xlink="http://www.w3.org/1999/xlink" xml:space="preserve" xmlns:serif="http://www.serif.com/" style="fill-rule:evenodd;clip-rule:evenodd;stroke-linecap:round;stroke-linejoin:round;stroke-miterlimit:1.5;">
    <g>
        <path d="M702,321.786L702,537C702,626.962 628.962,700 539,700L413,700" style="fill:white;fill-opacity:0;stroke:black;stroke-width:20px;"/>
        <path d="M77.553,374C110.334,369.009 139.857,358.853 169.633,349.098C245.377,324.28 323.753,292.049 454.521,381" style="fill:none;stroke:black;stroke-width:20px;"/>
        <path d="M337,700L173,700C83.038,700 10,626.962 10,537L10,211C10,121.038 83.038,48 173,48L212.777,48" style="fill:white;fill-opacity:0;stroke:black;stroke-width:20px;"/>
        <path d="M288.777,48L539,48C628.962,48 702,117.824 702,207.786L702,245.786" style="fill:white;fill-opacity:0;stroke:black;stroke-width:20px;"/>
        <path d="M534.041,127.893C358.205,177.747 375.465,302.382 375.465,302.382C375.465,302.382 518.698,332.387 534.041,127.893Z" style="stroke:black;stroke-width:20px;"/>
        <path d="M182.505,594.392C382.559,485.34 326.828,356.811 326.828,356.811C326.828,356.811 144.19,369.738 182.505,594.392Z" style="stroke:black;stroke-width:20px;"/>
        <path d="M275.18,160.495C256.492,270.344 330.864,294.652 330.864,294.652C330.864,294.652 385.632,224.301 275.18,160.495Z" style="stroke:black;stroke-width:20px;"/>
    </g>
    <g>
        <g>
            <path d="M478.721,400.134C516.326,386.073 564.063,420.676 585.259,477.359C606.454,534.042 593.132,591.477 555.527,605.538C517.923,619.6 470.185,584.996 448.99,528.313C427.795,471.63 441.117,414.195 478.721,400.134Z" style="stroke:black;stroke-width:10.68px;"/>
            <path d="M458.951,494.694C462.47,513.963 468.976,540.444 495.914,567.464" style="stroke:white;stroke-width:15px;"/>
        </g>
    </g>
    <g>
        <circle cx="702" cy="283.786" r="38" style="fill:white;fill-opacity:0;stroke:black;stroke-width:20px;"/>
    </g>
    <g>
        <circle cx="375" cy="700" r="38" style="fill:white;fill-opacity:0;stroke:black;stroke-width:20px;"/>
    </g>
    <g>
        <circle cx="250.777" cy="48" r="38" style="fill:white;fill-opacity:0;stroke:black;stroke-width:20px;"/>
    </g>
</svg>
